<svg xmlns="http://www.w3.org/2000/svg" viewBox="0 0 192.76 192.76"><defs><style>.cls-1{fill:#fff;}.cls-2{fill:#c8202f;}.cls-3{fill:#1e4489;}</style></defs><title>NBA_200x200</title><g id="NBA"><path class="cls-1" d="M89,129.94,118.94,0H73.81a20,20,0,0,0-20,20V172.74a20,20,0,0,0,20,20H118.9a20,20,0,0,0,20-20V20A20,20,0,0,0,118.94,0"/><path class="cls-2" d="M107.74,35.33l.05.65c1.38.8,2.07,1.46,3.46,2.35,3.68,2.31,8.21,6.43,7.64,20.62,1,3.09,1.49,9.17,2.44,11.12,1.92,3.8,3.2,6.28,3.76,9.86,0,0,.55,5.59,1.27,6,3.81.86,2.71,1.23,3.26,1.89s2.79.73,2.79,2.77a13,13,0,0,1,1.75,3.19V20A15.26,15.26,0,0,0,118.93,4.7H104.36c2.34.83,3.66,1.82,4.43,3.38,1.88.16,4.12,4.38.64,10.61,1.54,1,.33,2.57-.77,4.35-.33.57-.68,1.59-1.71,1.52-1.33,2.79-2.93,5.48-4.13,5.65a2,2,0,0,0-.09,2.22,20.16,20.16,0,0,1,5,2.9"/><path class="cls-2" d="M134.16,103.77A13.61,13.61,0,1,1,118.3,85.52c-1.56-3.92-4.87-10.28-5.86-12.37s-3.17-15-3.65-17.55c-.11-.56-5.87,3.34-5.88,3.58-.33.33-4.31,10.72-4.48,11.29a16,16,0,0,0-.09,1.74s2,.24,3.08,3.66,4.52,15.86,4.52,15.86a9.05,9.05,0,0,1-1,.9c4.29,14.37,2.79,20.56,4.72,24.78,2.42,5.94,3.07,5.16,5.15,10.15,1.49,3.64,3.16,17.95,3.71,18.59,2.32,2.94,3.57,5.24,3.57,6.89s-2,6.6-1.25,9.47c.43,1.69.66,5.48,1.45,6.2,0,0,.72,1.42.36,2-.1.22-.3.55-.21.81,1.28,4.51,5.4,12.21-1.28,16.24h.14a15.14,15.14,0,0,0,12.82-15.07Z"/><path class="cls-3" d="M117,169.81c-2.46-2.18-.82-3.11-.92-4-1.61-6.68-6.91-10.71-4.17-12.92-.68-2.2-2.06-5-2-5-8.26-4.75-15.29-12.45-16.49-13.58C92,132.8,89.5,131.22,89,129.94c-2-1.82-11.72-15.64-14-20.72l-4-.56c-1.8-7.35-7.8-13.5-8-20.87a41,41,0,0,1,1.75-9.93c.48-1.21,2.78-3.19,2.78-3.19v-2c-8.62.24-6.14-.64-7.63-4-1-2.32-.29-2.83.08-4.44,1.16-4.75,5-12.08,6.59-15.41.49-1.68,2.15-5.73,2.15-5.73C75.29,30,77.69,31,85.32,30.27l.37-.54c7.65-.33,6.4-.91,7.48-8.28-1.12.48-1.45-2.3-1.45-2.3-.61-4.2,1.16-3.4,2-3.49.18-6.89.89-9.06,5.86-11H73.82A15.25,15.25,0,0,0,58.57,20V172.74A15.25,15.25,0,0,0,73.82,188h45.12C113.77,185.21,116.82,179.9,117,169.81Z"/><path class="cls-1" d="M82.35,178.4V150.74h5.37c3.1,0,5,1.66,5,5.54v4.11c0,2.51-.76,3.79-1.84,4.41a4.54,4.54,0,0,1,1.84,4.07v4c0,3.8-2,5.5-5,5.5Zm3.68-12v8.52h1.42c1.27,0,1.61-.66,1.61-2v-4.69c0-1.36-.42-1.86-1.65-1.86Zm0-12.17v9.15h1.38c1.31,0,1.65-.47,1.65-2v-5.3c0-1.29-.38-1.87-1.61-1.87Zm15.38,18.56H98.07l-.46,5.62H93.89l3.34-27.66h5.29l3.22,27.66h-3.87Zm-1.65-18.94h-.19c-.23,3.33-.69,9.18-.85,11l-.42,4.76h2.88l-.43-4.76c-.15-1.9-.69-7.67-1-11M71.39,178.4H68.17V150.74h5.1l4.1,22.66c-.34-5.42-.81-12-.81-17.55v-5.11h3.23V178.4H75.11L71,156.24c.27,5.11.38,9.18.38,13.44Z"/></g></svg>